<mxfile host="65bd71144e">
    <diagram id="Bl6PnjhjwC42AaLjEG6b" name="Page-1">
        <mxGraphModel dx="3425" dy="2639" grid="1" gridSize="10" guides="1" tooltips="1" connect="1" arrows="1" fold="1" page="1" pageScale="1" pageWidth="1169" pageHeight="827" math="0" shadow="0">
            <root>
                <mxCell id="0"/>
                <mxCell id="1" parent="0"/>
                <mxCell id="111" value="&lt;p style=&quot;line-height: 2.6 ; font-size: 36px&quot;&gt;Protos&lt;/p&gt;" style="shape=folder;fontStyle=1;spacingTop=10;tabWidth=40;tabHeight=14;tabPosition=left;html=1;verticalAlign=top;strokeWidth=2;" vertex="1" parent="1">
                    <mxGeometry x="1016" y="1778" width="976" height="580" as="geometry"/>
                </mxCell>
                <mxCell id="101" value="&lt;font style=&quot;font-size: 36px&quot;&gt;Execptions&lt;/font&gt;" style="shape=folder;fontStyle=1;spacingTop=10;tabWidth=40;tabHeight=14;tabPosition=left;html=1;fontSize=22;strokeColor=default;strokeWidth=2;verticalAlign=top;" parent="1" vertex="1">
                    <mxGeometry x="1299" y="1570" width="410" height="170" as="geometry"/>
                </mxCell>
                <mxCell id="97" value="&lt;p style=&quot;line-height: 2.6 ; font-size: 36px&quot;&gt;UseCases&lt;/p&gt;" style="shape=folder;fontStyle=1;spacingTop=10;tabWidth=40;tabHeight=14;tabPosition=left;html=1;fontSize=22;strokeColor=default;strokeWidth=2;verticalAlign=top;" parent="1" vertex="1">
                    <mxGeometry x="-189.5" y="1560" width="1110" height="850" as="geometry"/>
                </mxCell>
                <mxCell id="61" value="&lt;font style=&quot;font-size: 36px&quot;&gt;Views&lt;/font&gt;" style="shape=folder;fontStyle=1;spacingTop=10;tabWidth=40;tabHeight=14;tabPosition=left;html=1;fontSize=22;strokeColor=default;strokeWidth=2;verticalAlign=top;" parent="1" vertex="1">
                    <mxGeometry x="145.5" y="1250" width="440" height="190" as="geometry"/>
                </mxCell>
                <mxCell id="56" value="&lt;font style=&quot;font-size: 36px ; line-height: 2.6&quot;&gt;Server&lt;/font&gt;" style="shape=folder;fontStyle=1;spacingTop=10;tabWidth=40;tabHeight=14;tabPosition=left;html=1;fontSize=22;strokeColor=default;strokeWidth=2;verticalAlign=top;" parent="1" vertex="1">
                    <mxGeometry x="1024" y="-35" width="960" height="1495" as="geometry"/>
                </mxCell>
                <mxCell id="53" value="&lt;font style=&quot;font-size: 36px ; line-height: 2.6&quot;&gt;Cliente&lt;/font&gt;" style="shape=folder;fontStyle=1;spacingTop=10;tabWidth=40;tabHeight=14;tabPosition=left;html=1;fontSize=22;strokeColor=default;strokeWidth=2;verticalAlign=top;" parent="1" vertex="1">
                    <mxGeometry x="-114.5" y="-35" width="960" height="1205" as="geometry"/>
                </mxCell>
                <mxCell id="2" value="User" style="shape=umlBoundary;whiteSpace=wrap;html=1;fillColor=#1ba1e2;strokeColor=#000000;strokeWidth=2;fontStyle=1;fontSize=22;verticalAlign=middle;fontColor=#ffffff;spacing=2;" parent="1" vertex="1">
                    <mxGeometry x="280" y="100" width="140" height="120" as="geometry"/>
                </mxCell>
                <mxCell id="55" style="edgeStyle=none;html=1;exitX=0.5;exitY=0;exitDx=0;exitDy=0;entryX=0.606;entryY=1.01;entryDx=0;entryDy=0;entryPerimeter=0;fontSize=22;endArrow=none;endFill=0;strokeWidth=2;" parent="1" source="7" target="2" edge="1">
                    <mxGeometry relative="1" as="geometry"/>
                </mxCell>
                <mxCell id="7" value="Proxy" style="swimlane;fontStyle=1;align=center;verticalAlign=bottom;childLayout=stackLayout;horizontal=1;startSize=26;horizontalStack=0;resizeParent=1;resizeParentMax=0;resizeLast=0;collapsible=1;marginBottom=0;fontSize=22;strokeColor=#000000;strokeWidth=2;fillColor=#1ba1e2;fontColor=#ffffff;" parent="1" vertex="1">
                    <mxGeometry x="-44.5" y="340" width="820" height="420" as="geometry"/>
                </mxCell>
                <mxCell id="8" value="- requestId : int&#10;- client : UDPClient" style="text;strokeColor=none;fillColor=none;align=left;verticalAlign=middle;spacingLeft=4;spacingRight=4;overflow=hidden;rotatable=0;points=[[0,0.5],[1,0.5]];portConstraint=eastwest;fontSize=22;fontStyle=0" parent="7" vertex="1">
                    <mxGeometry y="26" width="820" height="50" as="geometry"/>
                </mxCell>
                <mxCell id="103" value="- MAX_ENVIOS = 10: int" style="text;strokeColor=none;fillColor=none;align=left;verticalAlign=top;spacingLeft=4;spacingRight=4;overflow=hidden;rotatable=0;points=[[0,0.5],[1,0.5]];portConstraint=eastwest;fontSize=22;fontStyle=4" parent="7" vertex="1">
                    <mxGeometry y="76" width="820" height="34" as="geometry"/>
                </mxCell>
                <mxCell id="9" value="" style="line;strokeWidth=2;fillColor=none;align=left;verticalAlign=middle;spacingTop=-1;spacingLeft=3;spacingRight=3;rotatable=0;labelPosition=right;points=[];portConstraint=eastwest;fontSize=22;" parent="7" vertex="1">
                    <mxGeometry y="110" width="820" height="8" as="geometry"/>
                </mxCell>
                <mxCell id="18" value="+ Proxy()" style="text;strokeColor=none;fillColor=none;align=left;verticalAlign=middle;spacingLeft=4;spacingRight=4;overflow=hidden;rotatable=0;points=[[0,0.5],[1,0.5]];portConstraint=eastwest;fontSize=22;" parent="7" vertex="1">
                    <mxGeometry y="118" width="820" height="26" as="geometry"/>
                </mxCell>
                <mxCell id="16" value="+ adicionarContato(contato : Contato) : boolean" style="text;strokeColor=none;fillColor=none;align=left;verticalAlign=middle;spacingLeft=4;spacingRight=4;overflow=hidden;rotatable=0;points=[[0,0.5],[1,0.5]];portConstraint=eastwest;fontSize=22;" parent="7" vertex="1">
                    <mxGeometry y="144" width="820" height="26" as="geometry"/>
                </mxCell>
                <mxCell id="17" value="+ listarContatos(): List&lt;Contato&gt;" style="text;strokeColor=none;fillColor=none;align=left;verticalAlign=middle;spacingLeft=4;spacingRight=4;overflow=hidden;rotatable=0;points=[[0,0.5],[1,0.5]];portConstraint=eastwest;fontSize=22;" parent="7" vertex="1">
                    <mxGeometry y="170" width="820" height="26" as="geometry"/>
                </mxCell>
                <mxCell id="15" value="+ procurarContatos(contato : Contato) : List&lt;Contato&gt;" style="text;strokeColor=none;fillColor=none;align=left;verticalAlign=middle;spacingLeft=4;spacingRight=4;overflow=hidden;rotatable=0;points=[[0,0.5],[1,0.5]];portConstraint=eastwest;fontSize=22;" parent="7" vertex="1">
                    <mxGeometry y="196" width="820" height="26" as="geometry"/>
                </mxCell>
                <mxCell id="14" value="+ editarContato(contato : Contato) : boolean" style="text;strokeColor=none;fillColor=none;align=left;verticalAlign=middle;spacingLeft=4;spacingRight=4;overflow=hidden;rotatable=0;points=[[0,0.5],[1,0.5]];portConstraint=eastwest;fontSize=22;" parent="7" vertex="1">
                    <mxGeometry y="222" width="820" height="26" as="geometry"/>
                </mxCell>
                <mxCell id="11" value="+ removerContato(contato : Contato) : boolean" style="text;strokeColor=none;fillColor=none;align=left;verticalAlign=middle;spacingLeft=4;spacingRight=4;overflow=hidden;rotatable=0;points=[[0,0.5],[1,0.5]];portConstraint=eastwest;fontSize=22;" parent="7" vertex="1">
                    <mxGeometry y="248" width="820" height="26" as="geometry"/>
                </mxCell>
                <mxCell id="10" value="+ limparAgenda() : boolean" style="text;strokeColor=none;fillColor=none;align=left;verticalAlign=middle;spacingLeft=4;spacingRight=4;overflow=hidden;rotatable=0;points=[[0,0.5],[1,0.5]];portConstraint=eastwest;fontSize=22;" parent="7" vertex="1">
                    <mxGeometry y="274" width="820" height="30" as="geometry"/>
                </mxCell>
                <mxCell id="21" value="+ finaliza() : void" style="text;strokeColor=none;fillColor=none;align=left;verticalAlign=middle;spacingLeft=4;spacingRight=4;overflow=hidden;rotatable=0;points=[[0,0.5],[1,0.5]];portConstraint=eastwest;fontSize=22;" parent="7" vertex="1">
                    <mxGeometry y="304" width="820" height="26" as="geometry"/>
                </mxCell>
                <mxCell id="20" value="+ empacotaMenssagem(objRef : String, method : String, args : ByteString) : byte[ ]" style="text;strokeColor=none;fillColor=none;align=left;verticalAlign=middle;spacingLeft=4;spacingRight=4;overflow=hidden;rotatable=0;points=[[0,0.5],[1,0.5]];portConstraint=eastwest;fontSize=22;" parent="7" vertex="1">
                    <mxGeometry y="330" width="820" height="30" as="geometry"/>
                </mxCell>
                <mxCell id="19" value="+ desempacotaMenssagem(resposta : byte[ ]) : Message" style="text;strokeColor=none;fillColor=none;align=left;verticalAlign=middle;spacingLeft=4;spacingRight=4;overflow=hidden;rotatable=0;points=[[0,0.5],[1,0.5]];portConstraint=eastwest;fontSize=22;" parent="7" vertex="1">
                    <mxGeometry y="360" width="820" height="26" as="geometry"/>
                </mxCell>
                <mxCell id="23" value="+ doOperation(objectRef : String, method : String, args : ByteString) : byte[ ]" style="text;strokeColor=none;fillColor=none;align=left;verticalAlign=top;spacingLeft=4;spacingRight=4;overflow=hidden;rotatable=0;points=[[0,0.5],[1,0.5]];portConstraint=eastwest;fontSize=22;" parent="7" vertex="1">
                    <mxGeometry y="386" width="820" height="34" as="geometry"/>
                </mxCell>
                <mxCell id="28" style="edgeStyle=none;html=1;exitX=0.5;exitY=0;exitDx=0;exitDy=0;fontSize=22;endArrow=none;endFill=0;strokeWidth=2;" parent="1" source="24" target="23" edge="1">
                    <mxGeometry relative="1" as="geometry"/>
                </mxCell>
                <mxCell id="24" value="UDPClient" style="swimlane;fontStyle=1;align=center;verticalAlign=bottom;childLayout=stackLayout;horizontal=1;startSize=26;horizontalStack=0;resizeParent=1;resizeParentMax=0;resizeLast=0;collapsible=1;marginBottom=0;fontSize=22;strokeColor=#000000;strokeWidth=2;fillColor=#1ba1e2;fontColor=#ffffff;" parent="1" vertex="1">
                    <mxGeometry x="130.5" y="840" width="470" height="280" as="geometry"/>
                </mxCell>
                <mxCell id="25" value="- socket : DatagramSocket&#10;- aHost : InetAddress&#10;- serverPort : int&#10;- request : DatagramPacket&#10;- reply : DatagramPacket" style="text;strokeColor=none;fillColor=none;align=left;verticalAlign=middle;spacingLeft=4;spacingRight=4;overflow=hidden;rotatable=0;points=[[0,0.5],[1,0.5]];portConstraint=eastwest;fontSize=22;" parent="24" vertex="1">
                    <mxGeometry y="26" width="470" height="134" as="geometry"/>
                </mxCell>
                <mxCell id="26" value="" style="line;strokeWidth=2;fillColor=none;align=left;verticalAlign=middle;spacingTop=-1;spacingLeft=3;spacingRight=3;rotatable=0;labelPosition=right;points=[];portConstraint=eastwest;fontSize=22;" parent="24" vertex="1">
                    <mxGeometry y="160" width="470" height="8" as="geometry"/>
                </mxCell>
                <mxCell id="27" value="+ UDPClient()&#10;+ sendRequest(byte[ ] msg) : void&#10;+ getResponse() : byte[ ]&#10;+ close() : void" style="text;strokeColor=none;fillColor=none;align=left;verticalAlign=middle;spacingLeft=4;spacingRight=4;overflow=hidden;rotatable=0;points=[[0,0.5],[1,0.5]];portConstraint=eastwest;fontSize=22;" parent="24" vertex="1">
                    <mxGeometry y="168" width="470" height="112" as="geometry"/>
                </mxCell>
                <mxCell id="29" value="UDPServer" style="swimlane;fontStyle=1;align=center;verticalAlign=bottom;childLayout=stackLayout;horizontal=1;startSize=26;horizontalStack=0;resizeParent=1;resizeParentMax=0;resizeLast=0;collapsible=1;marginBottom=0;fontSize=22;strokeColor=#000000;strokeWidth=2;fillColor=#1ba1e2;fontColor=#ffffff;" parent="1" vertex="1">
                    <mxGeometry x="1169" y="80" width="670" height="340" as="geometry"/>
                </mxCell>
                <mxCell id="30" value="- aSocket : DatagramSocket&#10;- despachante : Despachante&#10;- buffer : byte[ ]&#10;- request : DatagramPacket&#10;- reply : DatagramPacket&#10;- mapa : Map&lt;Integer, byte [ ]&gt;" style="text;strokeColor=none;fillColor=none;align=left;verticalAlign=top;spacingLeft=4;spacingRight=4;overflow=hidden;rotatable=0;points=[[0,0.5],[1,0.5]];portConstraint=eastwest;fontSize=22;" parent="29" vertex="1">
                    <mxGeometry y="26" width="670" height="164" as="geometry"/>
                </mxCell>
                <mxCell id="31" value="" style="line;strokeWidth=2;fillColor=none;align=left;verticalAlign=middle;spacingTop=-1;spacingLeft=3;spacingRight=3;rotatable=0;labelPosition=right;points=[];portConstraint=eastwest;fontSize=17;" parent="29" vertex="1">
                    <mxGeometry y="190" width="670" height="8" as="geometry"/>
                </mxCell>
                <mxCell id="32" value="+ main(argrs[ ] : String) : void&#10;+ getRequest : byte [ ]&#10;+ sendResponse(byte [ ] resposta) : void&#10;+ empacoteResposta(Message message, ByteString args) : byte[ ]&#10;+ desempacotaRequisicao(byte[ ] request) : Message" style="text;strokeColor=none;fillColor=none;align=left;verticalAlign=top;spacingLeft=4;spacingRight=4;overflow=hidden;rotatable=0;points=[[0,0.5],[1,0.5]];portConstraint=eastwest;fontSize=22;strokeWidth=2;" parent="29" vertex="1">
                    <mxGeometry y="198" width="670" height="142" as="geometry"/>
                </mxCell>
                <mxCell id="52" style="edgeStyle=none;html=1;exitX=0.5;exitY=0;exitDx=0;exitDy=0;entryX=0.5;entryY=1;entryDx=0;entryDy=0;fontSize=22;endArrow=none;endFill=0;strokeWidth=2;" parent="1" source="33" target="29" edge="1">
                    <mxGeometry relative="1" as="geometry"/>
                </mxCell>
                <mxCell id="33" value="Despachante" style="swimlane;fontStyle=1;align=center;verticalAlign=bottom;childLayout=stackLayout;horizontal=1;startSize=26;horizontalStack=0;resizeParent=1;resizeParentMax=0;resizeLast=0;collapsible=1;marginBottom=0;fontSize=22;strokeColor=#000000;strokeWidth=2;fillColor=#1ba1e2;fontColor=#ffffff;" parent="1" vertex="1">
                    <mxGeometry x="1169" y="540" width="670" height="130" as="geometry"/>
                </mxCell>
                <mxCell id="34" value="- uniqueInstance : Despachante" style="text;strokeColor=none;fillColor=none;align=left;verticalAlign=top;spacingLeft=4;spacingRight=4;overflow=hidden;rotatable=0;points=[[0,0.5],[1,0.5]];portConstraint=eastwest;fontSize=22;" parent="33" vertex="1">
                    <mxGeometry y="26" width="670" height="34" as="geometry"/>
                </mxCell>
                <mxCell id="35" value="" style="line;strokeWidth=2;fillColor=none;align=left;verticalAlign=middle;spacingTop=-1;spacingLeft=3;spacingRight=3;rotatable=0;labelPosition=right;points=[];portConstraint=eastwest;fontSize=17;" parent="33" vertex="1">
                    <mxGeometry y="60" width="670" height="8" as="geometry"/>
                </mxCell>
                <mxCell id="36" value="+ getInstance() : Despachante&#10;+ invoke (Message request) : ByteString" style="text;strokeColor=none;fillColor=none;align=left;verticalAlign=top;spacingLeft=4;spacingRight=4;overflow=hidden;rotatable=0;points=[[0,0.5],[1,0.5]];portConstraint=eastwest;fontSize=22;strokeWidth=2;" parent="33" vertex="1">
                    <mxGeometry y="68" width="670" height="62" as="geometry"/>
                </mxCell>
                <mxCell id="51" style="edgeStyle=none;html=1;exitX=0.5;exitY=0;exitDx=0;exitDy=0;entryX=0.5;entryY=1;entryDx=0;entryDy=0;fontSize=22;endArrow=none;endFill=0;strokeWidth=2;" parent="1" source="37" target="33" edge="1">
                    <mxGeometry relative="1" as="geometry"/>
                </mxCell>
                <mxCell id="37" value="AgendaEsqueleto" style="swimlane;fontStyle=1;align=center;verticalAlign=bottom;childLayout=stackLayout;horizontal=1;startSize=26;horizontalStack=0;resizeParent=1;resizeParentMax=0;resizeLast=0;collapsible=1;marginBottom=0;fontSize=22;strokeColor=#000000;strokeWidth=2;fillColor=#1ba1e2;fontColor=#ffffff;" parent="1" vertex="1">
                    <mxGeometry x="1169" y="770" width="670" height="260" as="geometry"/>
                </mxCell>
                <mxCell id="38" value="- agenda : SistemaAgenda" style="text;strokeColor=none;fillColor=none;align=left;verticalAlign=top;spacingLeft=4;spacingRight=4;overflow=hidden;rotatable=0;points=[[0,0.5],[1,0.5]];portConstraint=eastwest;fontSize=22;" parent="37" vertex="1">
                    <mxGeometry y="26" width="670" height="34" as="geometry"/>
                </mxCell>
                <mxCell id="39" value="" style="line;strokeWidth=2;fillColor=none;align=left;verticalAlign=middle;spacingTop=-1;spacingLeft=3;spacingRight=3;rotatable=0;labelPosition=right;points=[];portConstraint=eastwest;fontSize=17;" parent="37" vertex="1">
                    <mxGeometry y="60" width="670" height="8" as="geometry"/>
                </mxCell>
                <mxCell id="40" value="+ AgendaEsqueleto()&#10;+ adicionarContato(ByteString args) : ByteString&#10;+ listarContatos(ByteString args) : ByteString&#10;+ procurarContato(ByteString args) : ByteString&#10;+ editarContato(ByteString args) : ByteString&#10;+ removerContato(ByteString args) : ByteString&#10;+ limparAgenda (ByteString args) : ByteString&#10;" style="text;strokeColor=none;fillColor=none;align=left;verticalAlign=top;spacingLeft=4;spacingRight=4;overflow=hidden;rotatable=0;points=[[0,0.5],[1,0.5]];portConstraint=eastwest;fontSize=22;strokeWidth=2;" parent="37" vertex="1">
                    <mxGeometry y="68" width="670" height="192" as="geometry"/>
                </mxCell>
                <mxCell id="50" style="edgeStyle=none;html=1;exitX=0.5;exitY=0;exitDx=0;exitDy=0;entryX=0.5;entryY=1;entryDx=0;entryDy=0;fontSize=22;endArrow=none;endFill=0;strokeWidth=2;" parent="1" source="45" target="37" edge="1">
                    <mxGeometry relative="1" as="geometry"/>
                </mxCell>
                <mxCell id="45" value="SistemaAgenda" style="swimlane;fontStyle=1;align=center;verticalAlign=bottom;childLayout=stackLayout;horizontal=1;startSize=26;horizontalStack=0;resizeParent=1;resizeParentMax=0;resizeLast=0;collapsible=1;marginBottom=0;fontSize=22;strokeColor=#000000;strokeWidth=2;fillColor=#1ba1e2;fontColor=#ffffff;" parent="1" vertex="1">
                    <mxGeometry x="1169" y="1130" width="670" height="290" as="geometry"/>
                </mxCell>
                <mxCell id="46" value="- FILENAME = &quot;agenda.txt&quot; : String" style="text;strokeColor=none;fillColor=none;align=left;verticalAlign=top;spacingLeft=4;spacingRight=4;overflow=hidden;rotatable=0;points=[[0,0.5],[1,0.5]];portConstraint=eastwest;fontSize=22;fontStyle=4" parent="45" vertex="1">
                    <mxGeometry y="26" width="670" height="34" as="geometry"/>
                </mxCell>
                <mxCell id="47" value="" style="line;strokeWidth=2;fillColor=none;align=left;verticalAlign=middle;spacingTop=-1;spacingLeft=3;spacingRight=3;rotatable=0;labelPosition=right;points=[];portConstraint=eastwest;fontSize=17;" parent="45" vertex="1">
                    <mxGeometry y="60" width="670" height="8" as="geometry"/>
                </mxCell>
                <mxCell id="48" value="- lerArquivoEntrada(agenda : Agenda.Builder) : void&#10;- escreverArquivoSaida(agenda : Agenda.Builder) : void&#10;+ adicionarContato(contato : Contato) : boolean&#10;+ listarContatos() : Agenda&#10;+ procurarContatos(contato : Contato) : Agenda&#10;+ removerContato(contato : Contato) : Agenda&#10;+ limparAgenda() : boolean&#10;+ editarContato(Contato contato) : boolean" style="text;strokeColor=none;fillColor=none;align=left;verticalAlign=top;spacingLeft=4;spacingRight=4;overflow=hidden;rotatable=0;points=[[0,0.5],[1,0.5]];portConstraint=eastwest;fontSize=22;strokeWidth=2;" parent="45" vertex="1">
                    <mxGeometry y="68" width="670" height="222" as="geometry"/>
                </mxCell>
                <mxCell id="57" value="Tela" style="swimlane;fontStyle=1;align=center;verticalAlign=bottom;childLayout=stackLayout;horizontal=1;startSize=26;horizontalStack=0;resizeParent=1;resizeParentMax=0;resizeLast=0;collapsible=1;marginBottom=0;fontSize=22;strokeColor=#000000;strokeWidth=2;fillColor=#1ba1e2;fontColor=#ffffff;" parent="1" vertex="1">
                    <mxGeometry x="170.75" y="1320" width="389.5" height="88" as="geometry"/>
                </mxCell>
                <mxCell id="60" value="+ limpaTela() : void&#10;+ printMenu() : void" style="text;strokeColor=none;fillColor=none;align=left;verticalAlign=top;spacingLeft=4;spacingRight=4;overflow=hidden;rotatable=0;points=[[0,0.5],[1,0.5]];portConstraint=eastwest;fontSize=22;strokeWidth=2;" parent="57" vertex="1">
                    <mxGeometry y="26" width="389.5" height="62" as="geometry"/>
                </mxCell>
                <mxCell id="64" value="Validation" style="swimlane;fontStyle=1;align=center;verticalAlign=bottom;childLayout=stackLayout;horizontal=1;startSize=26;horizontalStack=0;resizeParent=1;resizeParentMax=0;resizeLast=0;collapsible=1;marginBottom=0;fontSize=22;strokeColor=#000000;strokeWidth=2;fillColor=#1ba1e2;fontColor=#ffffff;" parent="1" vertex="1">
                    <mxGeometry x="-144" y="1736" width="480" height="88" as="geometry"/>
                </mxCell>
                <mxCell id="65" value="+ validationTelefone(telefone : String) : boolean&#10;+ validationEmail(telefone : String) : boolean" style="text;strokeColor=none;fillColor=none;align=left;verticalAlign=top;spacingLeft=4;spacingRight=4;overflow=hidden;rotatable=0;points=[[0,0.5],[1,0.5]];portConstraint=eastwest;fontSize=22;strokeWidth=2;" parent="64" vertex="1">
                    <mxGeometry y="26" width="480" height="62" as="geometry"/>
                </mxCell>
                <mxCell id="80" style="edgeStyle=none;html=1;exitX=0.5;exitY=0;exitDx=0;exitDy=0;entryX=0.5;entryY=1;entryDx=0;entryDy=0;fontSize=22;endArrow=none;endFill=0;strokeWidth=2;" parent="1" source="66" target="64" edge="1">
                    <mxGeometry relative="1" as="geometry"/>
                </mxCell>
                <mxCell id="66" value="AdicionarContato" style="swimlane;fontStyle=1;align=center;verticalAlign=middle;childLayout=stackLayout;horizontal=1;startSize=26;horizontalStack=0;resizeParent=1;resizeParentMax=0;resizeLast=0;collapsible=1;marginBottom=0;fontSize=22;strokeColor=#000000;strokeWidth=2;fillColor=#1ba1e2;fontColor=#ffffff;" parent="1" vertex="1">
                    <mxGeometry x="-139" y="1912" width="470" height="120" as="geometry"/>
                </mxCell>
                <mxCell id="67" value="- proxy : Proxy&#10;- stdin : BufferReader" style="text;strokeColor=none;fillColor=none;align=left;verticalAlign=middle;spacingLeft=4;spacingRight=4;overflow=hidden;rotatable=0;points=[[0,0.5],[1,0.5]];portConstraint=eastwest;fontSize=22;" parent="66" vertex="1">
                    <mxGeometry y="26" width="470" height="54" as="geometry"/>
                </mxCell>
                <mxCell id="68" value="" style="line;strokeWidth=2;fillColor=none;align=left;verticalAlign=middle;spacingTop=-1;spacingLeft=3;spacingRight=3;rotatable=0;labelPosition=right;points=[];portConstraint=eastwest;fontSize=22;" parent="66" vertex="1">
                    <mxGeometry y="80" width="470" height="8" as="geometry"/>
                </mxCell>
                <mxCell id="69" value="+ adicionarContato() : void" style="text;strokeColor=none;fillColor=none;align=left;verticalAlign=middle;spacingLeft=4;spacingRight=4;overflow=hidden;rotatable=0;points=[[0,0.5],[1,0.5]];portConstraint=eastwest;fontSize=22;" parent="66" vertex="1">
                    <mxGeometry y="88" width="470" height="32" as="geometry"/>
                </mxCell>
                <mxCell id="79" style="edgeStyle=none;html=1;exitX=0;exitY=0.5;exitDx=0;exitDy=0;entryX=1;entryY=0.5;entryDx=0;entryDy=0;fontSize=22;endArrow=none;endFill=0;strokeWidth=2;" parent="1" source="70" target="64" edge="1">
                    <mxGeometry relative="1" as="geometry"/>
                </mxCell>
                <mxCell id="70" value="EditarContato" style="swimlane;fontStyle=1;align=center;verticalAlign=middle;childLayout=stackLayout;horizontal=1;startSize=26;horizontalStack=0;resizeParent=1;resizeParentMax=0;resizeLast=0;collapsible=1;marginBottom=0;fontSize=22;strokeColor=#000000;strokeWidth=2;fillColor=#1ba1e2;fontColor=#ffffff;" parent="1" vertex="1">
                    <mxGeometry x="390.5" y="1720" width="470" height="120" as="geometry"/>
                </mxCell>
                <mxCell id="71" value="- proxy : Proxy&#10;- stdin : BufferReader" style="text;strokeColor=none;fillColor=none;align=left;verticalAlign=middle;spacingLeft=4;spacingRight=4;overflow=hidden;rotatable=0;points=[[0,0.5],[1,0.5]];portConstraint=eastwest;fontSize=22;" parent="70" vertex="1">
                    <mxGeometry y="26" width="470" height="54" as="geometry"/>
                </mxCell>
                <mxCell id="72" value="" style="line;strokeWidth=2;fillColor=none;align=left;verticalAlign=middle;spacingTop=-1;spacingLeft=3;spacingRight=3;rotatable=0;labelPosition=right;points=[];portConstraint=eastwest;fontSize=22;" parent="70" vertex="1">
                    <mxGeometry y="80" width="470" height="8" as="geometry"/>
                </mxCell>
                <mxCell id="73" value="+ editarContato() : void" style="text;strokeColor=none;fillColor=none;align=left;verticalAlign=middle;spacingLeft=4;spacingRight=4;overflow=hidden;rotatable=0;points=[[0,0.5],[1,0.5]];portConstraint=eastwest;fontSize=22;" parent="70" vertex="1">
                    <mxGeometry y="88" width="470" height="32" as="geometry"/>
                </mxCell>
                <mxCell id="81" value="LimparAgenda" style="swimlane;fontStyle=1;align=center;verticalAlign=middle;childLayout=stackLayout;horizontal=1;startSize=26;horizontalStack=0;resizeParent=1;resizeParentMax=0;resizeLast=0;collapsible=1;marginBottom=0;fontSize=22;strokeColor=#000000;strokeWidth=2;fillColor=#1ba1e2;fontColor=#ffffff;" parent="1" vertex="1">
                    <mxGeometry x="390.5" y="1912" width="470" height="120" as="geometry"/>
                </mxCell>
                <mxCell id="82" value="- proxy : Proxy&#10;- stdin : BufferReader" style="text;strokeColor=none;fillColor=none;align=left;verticalAlign=middle;spacingLeft=4;spacingRight=4;overflow=hidden;rotatable=0;points=[[0,0.5],[1,0.5]];portConstraint=eastwest;fontSize=22;" parent="81" vertex="1">
                    <mxGeometry y="26" width="470" height="54" as="geometry"/>
                </mxCell>
                <mxCell id="83" value="" style="line;strokeWidth=2;fillColor=none;align=left;verticalAlign=middle;spacingTop=-1;spacingLeft=3;spacingRight=3;rotatable=0;labelPosition=right;points=[];portConstraint=eastwest;fontSize=22;" parent="81" vertex="1">
                    <mxGeometry y="80" width="470" height="8" as="geometry"/>
                </mxCell>
                <mxCell id="84" value="+ limparAgenda() : void" style="text;strokeColor=none;fillColor=none;align=left;verticalAlign=middle;spacingLeft=4;spacingRight=4;overflow=hidden;rotatable=0;points=[[0,0.5],[1,0.5]];portConstraint=eastwest;fontSize=22;" parent="81" vertex="1">
                    <mxGeometry y="88" width="470" height="32" as="geometry"/>
                </mxCell>
                <mxCell id="85" value="ProcurarContatos" style="swimlane;fontStyle=1;align=center;verticalAlign=middle;childLayout=stackLayout;horizontal=1;startSize=26;horizontalStack=0;resizeParent=1;resizeParentMax=0;resizeLast=0;collapsible=1;marginBottom=0;fontSize=22;strokeColor=#000000;strokeWidth=2;fillColor=#1ba1e2;fontColor=#ffffff;" parent="1" vertex="1">
                    <mxGeometry x="390.5" y="2090" width="470" height="120" as="geometry"/>
                </mxCell>
                <mxCell id="86" value="- proxy : Proxy&#10;- stdin : BufferReader" style="text;strokeColor=none;fillColor=none;align=left;verticalAlign=middle;spacingLeft=4;spacingRight=4;overflow=hidden;rotatable=0;points=[[0,0.5],[1,0.5]];portConstraint=eastwest;fontSize=22;" parent="85" vertex="1">
                    <mxGeometry y="26" width="470" height="54" as="geometry"/>
                </mxCell>
                <mxCell id="87" value="" style="line;strokeWidth=2;fillColor=none;align=left;verticalAlign=middle;spacingTop=-1;spacingLeft=3;spacingRight=3;rotatable=0;labelPosition=right;points=[];portConstraint=eastwest;fontSize=22;" parent="85" vertex="1">
                    <mxGeometry y="80" width="470" height="8" as="geometry"/>
                </mxCell>
                <mxCell id="88" value="+ procurarContatos() : void" style="text;strokeColor=none;fillColor=none;align=left;verticalAlign=middle;spacingLeft=4;spacingRight=4;overflow=hidden;rotatable=0;points=[[0,0.5],[1,0.5]];portConstraint=eastwest;fontSize=22;" parent="85" vertex="1">
                    <mxGeometry y="88" width="470" height="32" as="geometry"/>
                </mxCell>
                <mxCell id="89" value="ListarContatos" style="swimlane;fontStyle=1;align=center;verticalAlign=middle;childLayout=stackLayout;horizontal=1;startSize=26;horizontalStack=0;resizeParent=1;resizeParentMax=0;resizeLast=0;collapsible=1;marginBottom=0;fontSize=22;strokeColor=#000000;strokeWidth=2;fillColor=#1ba1e2;fontColor=#ffffff;" parent="1" vertex="1">
                    <mxGeometry x="-139" y="2090" width="470" height="120" as="geometry"/>
                </mxCell>
                <mxCell id="90" value="- proxy : Proxy&#10;- stdin : BufferReader" style="text;strokeColor=none;fillColor=none;align=left;verticalAlign=middle;spacingLeft=4;spacingRight=4;overflow=hidden;rotatable=0;points=[[0,0.5],[1,0.5]];portConstraint=eastwest;fontSize=22;" parent="89" vertex="1">
                    <mxGeometry y="26" width="470" height="54" as="geometry"/>
                </mxCell>
                <mxCell id="91" value="" style="line;strokeWidth=2;fillColor=none;align=left;verticalAlign=middle;spacingTop=-1;spacingLeft=3;spacingRight=3;rotatable=0;labelPosition=right;points=[];portConstraint=eastwest;fontSize=22;" parent="89" vertex="1">
                    <mxGeometry y="80" width="470" height="8" as="geometry"/>
                </mxCell>
                <mxCell id="92" value="+ listarContatos() : void" style="text;strokeColor=none;fillColor=none;align=left;verticalAlign=middle;spacingLeft=4;spacingRight=4;overflow=hidden;rotatable=0;points=[[0,0.5],[1,0.5]];portConstraint=eastwest;fontSize=22;" parent="89" vertex="1">
                    <mxGeometry y="88" width="470" height="32" as="geometry"/>
                </mxCell>
                <mxCell id="93" value="RemoverContato" style="swimlane;fontStyle=1;align=center;verticalAlign=middle;childLayout=stackLayout;horizontal=1;startSize=26;horizontalStack=0;resizeParent=1;resizeParentMax=0;resizeLast=0;collapsible=1;marginBottom=0;fontSize=22;strokeColor=#000000;strokeWidth=2;fillColor=#1ba1e2;fontColor=#ffffff;" parent="1" vertex="1">
                    <mxGeometry x="130.5" y="2250" width="470" height="120" as="geometry"/>
                </mxCell>
                <mxCell id="94" value="- proxy : Proxy&#10;- stdin : BufferReader" style="text;strokeColor=none;fillColor=none;align=left;verticalAlign=middle;spacingLeft=4;spacingRight=4;overflow=hidden;rotatable=0;points=[[0,0.5],[1,0.5]];portConstraint=eastwest;fontSize=22;" parent="93" vertex="1">
                    <mxGeometry y="26" width="470" height="54" as="geometry"/>
                </mxCell>
                <mxCell id="95" value="" style="line;strokeWidth=2;fillColor=none;align=left;verticalAlign=middle;spacingTop=-1;spacingLeft=3;spacingRight=3;rotatable=0;labelPosition=right;points=[];portConstraint=eastwest;fontSize=22;" parent="93" vertex="1">
                    <mxGeometry y="80" width="470" height="8" as="geometry"/>
                </mxCell>
                <mxCell id="96" value="+ removerContato() : void" style="text;strokeColor=none;fillColor=none;align=left;verticalAlign=middle;spacingLeft=4;spacingRight=4;overflow=hidden;rotatable=0;points=[[0,0.5],[1,0.5]];portConstraint=eastwest;fontSize=22;" parent="93" vertex="1">
                    <mxGeometry y="88" width="470" height="32" as="geometry"/>
                </mxCell>
                <mxCell id="98" value="NullNameException" style="swimlane;fontStyle=1;align=center;verticalAlign=bottom;childLayout=stackLayout;horizontal=1;startSize=26;horizontalStack=0;resizeParent=1;resizeParentMax=0;resizeLast=0;collapsible=1;marginBottom=0;fontSize=22;strokeColor=#000000;strokeWidth=2;fillColor=#1ba1e2;fontColor=#ffffff;" parent="1" vertex="1">
                    <mxGeometry x="1333.6299999999999" y="1650" width="340.75" height="60" as="geometry"/>
                </mxCell>
                <mxCell id="99" value="+ NullNameException()" style="text;strokeColor=none;fillColor=none;align=left;verticalAlign=top;spacingLeft=4;spacingRight=4;overflow=hidden;rotatable=0;points=[[0,0.5],[1,0.5]];portConstraint=eastwest;fontSize=22;strokeWidth=2;" parent="98" vertex="1">
                    <mxGeometry y="26" width="340.75" height="34" as="geometry"/>
                </mxCell>
                <mxCell id="104" value="Contato" style="swimlane;fontStyle=1;align=center;verticalAlign=bottom;childLayout=stackLayout;horizontal=1;startSize=26;horizontalStack=0;resizeParent=1;resizeParentMax=0;resizeLast=0;collapsible=1;marginBottom=0;fontSize=22;strokeColor=#000000;strokeWidth=2;fillColor=#1ba1e2;fontColor=#ffffff;" vertex="1" parent="1">
                    <mxGeometry x="1081.24" y="1950" width="389.5" height="170" as="geometry"/>
                </mxCell>
                <mxCell id="105" value="- nome : String&#10;- tipo : Enum&#10;- emails[ ] : Email&#10;- telefones[ ] : Telefone&#10;- enderecos[ ] : Endereco" style="text;strokeColor=none;fillColor=none;align=left;verticalAlign=top;spacingLeft=4;spacingRight=4;overflow=hidden;rotatable=0;points=[[0,0.5],[1,0.5]];portConstraint=eastwest;fontSize=22;strokeWidth=2;" vertex="1" parent="104">
                    <mxGeometry y="26" width="389.5" height="144" as="geometry"/>
                </mxCell>
                <mxCell id="106" value="Agenda" style="swimlane;fontStyle=1;align=center;verticalAlign=bottom;childLayout=stackLayout;horizontal=1;startSize=26;horizontalStack=0;resizeParent=1;resizeParentMax=0;resizeLast=0;collapsible=1;marginBottom=0;fontSize=22;strokeColor=#000000;strokeWidth=2;fillColor=#1ba1e2;fontColor=#ffffff;" vertex="1" parent="1">
                    <mxGeometry x="1521.24" y="1950" width="389.5" height="70" as="geometry"/>
                </mxCell>
                <mxCell id="107" value="- contatos[ ] : Contato" style="text;strokeColor=none;fillColor=none;align=left;verticalAlign=top;spacingLeft=4;spacingRight=4;overflow=hidden;rotatable=0;points=[[0,0.5],[1,0.5]];portConstraint=eastwest;fontSize=22;strokeWidth=2;" vertex="1" parent="106">
                    <mxGeometry y="26" width="389.5" height="44" as="geometry"/>
                </mxCell>
                <mxCell id="108" value="Message" style="swimlane;fontStyle=1;align=center;verticalAlign=bottom;childLayout=stackLayout;horizontal=1;startSize=26;horizontalStack=0;resizeParent=1;resizeParentMax=0;resizeLast=0;collapsible=1;marginBottom=0;fontSize=22;strokeColor=#000000;strokeWidth=2;fillColor=#1ba1e2;fontColor=#ffffff;" vertex="1" parent="1">
                    <mxGeometry x="1249" y="2140" width="510" height="170" as="geometry"/>
                </mxCell>
                <mxCell id="109" value="- type : int&#10;- id : int&#10;- objReference : int&#10;- methodId : String&#10;- args : ByteString" style="text;strokeColor=none;fillColor=none;align=left;verticalAlign=top;spacingLeft=4;spacingRight=4;overflow=hidden;rotatable=0;points=[[0,0.5],[1,0.5]];portConstraint=eastwest;fontSize=22;strokeWidth=2;" vertex="1" parent="108">
                    <mxGeometry y="26" width="510" height="144" as="geometry"/>
                </mxCell>
            </root>
        </mxGraphModel>
    </diagram>
</mxfile>